<svg xmlns="http://www.w3.org/2000/svg" xmlns:xlink="http://www.w3.org/1999/xlink" width="1550" height="1325.08" viewBox="0 0 1550 1325.08">
  <defs>
    <style>
      .cls-1 {
        isolation: isolate;
      }

      .cls-2 {
        fill: #30c17f;
      }

      .cls-3 {
        fill: url(#linear-gradient);
      }

      .cls-4 {
        opacity: 0.17;
      }

      .cls-5 {
        fill: #002d91;
      }

      .cls-6 {
        fill: #ffc700;
      }

      .cls-7 {
        fill: #fff;
      }

      .cls-8 {
        fill: #f9a085;
      }

      .cls-9 {
        fill: #111;
      }

      .cls-10 {
        fill: #f0f5f5;
      }

      .cls-11 {
        fill: #e6f0f0;
      }

      .cls-12 {
        opacity: 0.4;
        mix-blend-mode: multiply;
      }

      .cls-13 {
        fill: url(#linear-gradient-2);
      }

      .cls-14 {
        fill: #e3e9e9;
      }

      .cls-15 {
        fill: #1a1a1a;
      }
    </style>
    <linearGradient id="linear-gradient" x1="991.42" y1="93.1" x2="1005.71" y2="1358.82" gradientUnits="userSpaceOnUse">
      <stop offset="0" stop-color="#1167f1"/>
      <stop offset="0.3" stop-color="#0f64ed"/>
      <stop offset="0.62" stop-color="#0a5ae0"/>
      <stop offset="0.94" stop-color="#024acc"/>
      <stop offset="1" stop-color="#0046c7"/>
    </linearGradient>
    <linearGradient id="linear-gradient-2" x1="1243.46" y1="1371.51" x2="1243.46" y2="510.99" gradientUnits="userSpaceOnUse">
      <stop offset="0.1" stop-color="#fff"/>
      <stop offset="0.14" stop-color="#ebeff7"/>
      <stop offset="0.28" stop-color="#aebcdc"/>
      <stop offset="0.42" stop-color="#7991c5"/>
      <stop offset="0.55" stop-color="#4d6db2"/>
      <stop offset="0.67" stop-color="#2c51a4"/>
      <stop offset="0.8" stop-color="#143d99"/>
      <stop offset="0.91" stop-color="#053193"/>
      <stop offset="1" stop-color="#002d91"/>
    </linearGradient>
  </defs>
  <g class="cls-1">
    <g id="Graphic">
      <g>
        <ellipse class="cls-2" cx="775" cy="1275.08" rx="775" ry="50"/>
        <path class="cls-3" d="M1399.49,1372.43c-91.6-177.63-69.21-424.05,10.85-552s139.35-264.52,62.42-471c-79.38-213-425.41-327.35-671.7-196.68C614,252,593.2,441.32,608.57,539.82c3.86,24.75-2.65,62.83-14.82,84.71L493.8,804.23c-18.29,32.89,5.41,73.37,42.95,73.37h53.83a11,11,0,0,1,11,11v179.18c0,53.94,43.59,97.67,97.36,97.67H808.52a55.72,55.72,0,0,1,55.64,55.8v151.14Z" transform="translate(-225 -97.35)"/>
        <g class="cls-4">
          <path class="cls-5" d="M929.74,771c-38.5-34.57-97.91-22.59-127.39,19.71L787.6,811.87l-20.46-15.72C726.26,764.73,666,771.28,639.76,815.86c-74.08,125.84,115.16,228.22,188.31,257.52C889,1023.34,1038.39,868.55,929.74,771Z" transform="translate(-225 -97.35)"/>
        </g>
        <g>
          <path class="cls-6" d="M922.51,759.6C884,725,824.6,737,795.13,779.32l-14.75,21.17-20.46-15.72C719,753.35,658.78,759.89,632.53,804.48,558.45,930.32,747.69,1032.7,820.85,1062,881.72,1012,1031.17,857.17,922.51,759.6Z" transform="translate(-225 -97.35)"/>
          <path class="cls-7" d="M855,868.22l-39.34,6.22-6.21-39.34a6.11,6.11,0,0,0-7-5.1l-33.29,5.25a6.13,6.13,0,0,0-5.1,7l6.21,39.34-39.34,6.21a6.13,6.13,0,0,0-5.09,7l5.25,33.29a6.13,6.13,0,0,0,7,5.09L777.44,927l6.21,39.34a6.12,6.12,0,0,0,7,5.1l33.28-5.25a6.13,6.13,0,0,0,5.1-7l-6.21-39.34,39.34-6.21a6.13,6.13,0,0,0,5.1-7L862,873.32A6.13,6.13,0,0,0,855,868.22Z" transform="translate(-225 -97.35)"/>
        </g>
        <g>
          <path class="cls-8" d="M667.8,982.91a26,26,0,0,1,6-13.58,7.19,7.19,0,0,0,1.37-2,2.05,2.05,0,0,0-.4-2.24c-1.27-1.1-3.23.53-4.87.18-1.32-.28-2-1.72-2.35-3a16.3,16.3,0,0,1,.61-9.93c.54-1.37,1.24-3,.38-4.21-1-1.38-3.18-.9-4.65,0A15.13,15.13,0,0,0,656.74,959c-1,8,4.51,15.67,3.83,23.7" transform="translate(-225 -97.35)"/>
          <path class="cls-8" d="M799,1055.42l-3.11-9.65a2.91,2.91,0,0,1,0-2.48c.5-.77,1.56-.87,2.45-1.08a8.77,8.77,0,0,0,5.71-5,16.25,16.25,0,0,0,1.22-7.66,15,15,0,0,1,0-3.48,3.76,3.76,0,0,1,1.88-2.78c2-.93,4.12.69,5.67,2.2,1.72,1.68,3.49,3.49,4.1,5.81.7,2.67-.3,5.53-1.82,7.84s-3.52,4.26-5.15,6.48-2.93,4.9-2.67,7.65" transform="translate(-225 -97.35)"/>
          <path class="cls-8" d="M710.42,1106.68c3.26-9.3-2.49-20.08,1.14-29.24a15.19,15.19,0,0,1,28.1-.34c1.3,3.06,1.56,6.43,1.8,9.74.11,1.44.16,3.05-.78,4.15-.63.72-1.58,1.08-2.25,1.76-1.35,1.37-1.18,3.56-1.21,5.49a19.29,19.29,0,0,1-6.82,14.29,11.37,11.37,0,0,1-5.19,2.64,6.35,6.35,0,0,1-5.47-1.49" transform="translate(-225 -97.35)"/>
          <path class="cls-9" d="M772.53,1351.26l1,20.5,33.29.06s-1.07-9.09-10.46-10.26-14.47-11.2-14.47-11.2Z" transform="translate(-225 -97.35)"/>
          <path class="cls-9" d="M648.83,1352.25,646,1372.57l32.68,6.36s.67-9.13-8.33-12.06-12.09-13.74-12.09-13.74Z" transform="translate(-225 -97.35)"/>
          <polygon class="cls-5" points="430.35 1188.36 421.72 1259.37 437.66 1260.81 450.77 1186.33 430.35 1188.36"/>
          <polygon class="cls-5" points="523.13 1191.35 546.86 1258.72 561.16 1256.23 545.53 1183.92 523.13 1191.35"/>
          <path class="cls-10" d="M748.21,1134.81l45.92-18,14.52-65.56-12,.73L781,1102.36l-40,11.33-38-8.3-37.42-58.53,5.69-64.22L656.88,978,646,1050.51l38.43,74.85-25.51,104.76L646,1306s22.37,7.13,69,2.52,61.41-24.08,61.41-24.08l-41.64-94.66Z" transform="translate(-225 -97.35)"/>
          <path class="cls-9" d="M729.32,1092.5c-4,5.51-4.66,12.69-4.57,19.48s.83,13.68-.78,20.28a27.9,27.9,0,0,1-16.14,19.09,25,25,0,0,1-24.54-3.31c-6.76-5.39-10.07-14.91-7.72-23.24,3.7-13.06,18.89-20.07,23.29-32.9,1.64-4.81,1.62-10.05,3.25-14.86,4.76-14.1,20.28-18.14,33.06-12.73,4.84,2,7.39,5.25,6.81,10.67C741.13,1083,733.6,1086.53,729.32,1092.5Z" transform="translate(-225 -97.35)"/>
        </g>
        <g>
          <rect class="cls-8" x="878.84" y="1002.29" width="10.99" height="10.99"/>
          <path class="cls-8" d="M1118.74,1099.85a17.41,17.41,0,1,1-18.81-29.24,15,15,0,0,1,10.48-1.75c4.87,1.08,8.77,5,10.94,9.45s2.85,9.56,3.16,14.54" transform="translate(-225 -97.35)"/>
          <path class="cls-9" d="M1100.69,1078.16a3.33,3.33,0,0,1,2.43.62c1.25,1.24.2,4,1.78,4.75.93.46,2-.25,3.08,0a2.6,2.6,0,0,1,1.81,2.53,21,21,0,0,1-.38,3.33c-.32,3.09,1.12,6.06,2.53,8.84.79,1.56,1.73,3.27,3.38,3.87s3.77-.22,5.28-1.37a20,20,0,0,0,6.71-10.75,59.53,59.53,0,0,0,1.59-12.78c.13-2.55.18-5.36-1.46-7.32-1.85-2.21-5.1-2.46-8-2.54a10.83,10.83,0,0,0-6.19-7.38,19.89,19.89,0,0,0-9.78-1.49A21.94,21.94,0,0,0,1094,1061a12.62,12.62,0,0,0-6,7.47c-.74,2.81-.13,7.23,2.45,9.06S1097.87,1078.2,1100.69,1078.16Z" transform="translate(-225 -97.35)"/>
          <path class="cls-8" d="M1015,1087.77c-1.13-2.85-3.26-5.16-4.9-7.74s-2.8-5.83-1.7-8.69c.89-2.35,3.1-3.91,5.19-5.33,1.11-.75,2.51-1.53,3.72-1a3.39,3.39,0,0,1,1.55,2.74,7.69,7.69,0,0,0,.66,3.15,10,10,0,0,1,2.65,1.39,3.33,3.33,0,0,1,1.33,2.56,8.11,8.11,0,0,1-1.14,2.91,6.43,6.43,0,0,0,.33,5.82C1020.4,1085.25,1017.35,1086.14,1015,1087.77Z" transform="translate(-225 -97.35)"/>
          <polygon class="cls-11" points="911.41 1021.02 934.76 1084.81 908.48 1123.65 902.01 1114.51 918.39 1080.62 904.29 1054.72 911.41 1021.02"/>
          <path class="cls-8" d="M1077.08,1349.72s-7.93-.54-10.41.58l.71,17.08-9.41.83c-9.32,1-10.56,7.43-10.56,7.43h28.32Z" transform="translate(-225 -97.35)"/>
          <path class="cls-8" d="M1132.08,1349.67s-7.31-.5-9.8.62l2.34,16-9.19,1.89c-9.32,1-10.56,7.43-10.56,7.43h27.83Z" transform="translate(-225 -97.35)"/>
          <path class="cls-9" d="M1132.62,1372.5l.08,3.14h-27.83s1.24-6.43,10.56-7.43l4-.83C1125.75,1373.72,1132.62,1372.5,1132.62,1372.5Z" transform="translate(-225 -97.35)"/>
          <path class="cls-9" d="M1058,1368.21l3.72-.33h0c6.21,5.27,14.06,4.16,14.27,3.42l-.23,4.34h-28.32S1048.65,1369.21,1058,1368.21Z" transform="translate(-225 -97.35)"/>
          <path class="cls-5" d="M1109.41,1238.84s-17,32.75-21.74,42.94c-1.59,22.94-9.11,70.47-9.11,70.47H1063.8v-73.59l16.94-90.79h52.66l3,94.22-2.14,69.75-14.43.81Z" transform="translate(-225 -97.35)"/>
          <path class="cls-10" d="M1025.09,1081.54l-14.59,4.69,19.41,42.19,46.47,8.84s1.5,40.9-2.8,60.49-17.68,78.68-17.2,108.31c22,3.34,87,0,87,0s-6.69-96.84-10-118.82c0-17.68,6.79-55.16,5-62.94s-6-18.29-23.47-17-73.41,3.52-73.41,3.52Z" transform="translate(-225 -97.35)"/>
        </g>
        <g class="cls-12">
          <path class="cls-13" d="M1309.66,511l-7.64,1.46V561.9H1184.66V511l-7.64,1.46.27,859.06h7.64l0-76.47h117.37l0,76.47h7.64Zm-125,58.41H1302l0,83.2H1184.69Zm0,90.7h117.37l0,83.21H1184.72Zm0,90.71h117.37l0,83.2H1184.75Zm0,90.7h117.37l0,83.21H1184.78Zm0,90.71h117.37l0,83.2H1184.81Zm0,90.7h117.36l0,83.21H1184.83Zm0,90.71H1302.2l0,83.2H1184.86Zm.05,173.91,0-83.21h117.37l0,83.21Z" transform="translate(-225 -97.35)"/>
        </g>
        <path class="cls-5" d="M1414.29,514.2a118.09,118.09,0,0,0-29.41-78.15,14.84,14.84,0,0,1-3.34-13,99.17,99.17,0,0,0,2.42-21.81c0-51.59-38.47-95-96-98.56a15.32,15.32,0,0,1-13.61-10.56A93.48,93.48,0,0,0,1150.89,235a14.86,14.86,0,0,1-17.44-4.82A93.41,93.41,0,0,0,981,233.94c-4.45,6.63-13.08,9.31-20.1,5.51a93.38,93.38,0,0,0-135.08,60.12,15,15,0,0,1-14.6,11.16c-46,.33-81.41,39.4-81.41,80.29a80.15,80.15,0,0,0,7.13,33.13c3.22,7.1,0,15.33-6.75,19.17a92,92,0,0,0-46.86,80.32c.07,51.29,43.35,92.1,94.64,92.1H932A20.26,20.26,0,0,1,951,629.91a80.44,80.44,0,0,0,130.71,33.61,5,5,0,0,1,7.91,1.48,130.17,130.17,0,0,0,246.17-31.7,14.88,14.88,0,0,1,8.54-10.93A118.61,118.61,0,0,0,1414.29,514.2Z" transform="translate(-225 -97.35)"/>
        <g>
          <path class="cls-6" d="M1354.4,1371.51,1339.29,1295h117.37l15.11,76.47h7.64L1309.37,511l-7.35,1.46,9.77,49.45H1194.42L1184.36,511l-7.35,1.46,169.75,859.06ZM1195.9,569.4h117.37l16.44,83.2H1212.34Zm17.93,90.7h117.36l16.45,83.21H1230.27Zm17.92,90.71h117.37l16.44,83.2H1248.19Zm17.92,90.7H1367l16.44,83.21H1266.12Zm17.93,90.71H1385l16.45,83.2H1284Zm17.92,90.7h117.37l16.44,83.21H1302Zm17.93,90.71h117.36l16.44,83.2H1319.89Zm17.92,90.7h117.36l16.45,83.21H1337.81Z" transform="translate(-225 -97.35)"/>
          <polygon class="cls-14" points="1088.23 439.69 1097.55 503 1119.45 503 1098.27 439.69 1088.23 439.69"/>
          <g>
            <path class="cls-8" d="M1214.45,552.7c-2.46-1.82-5.49-2.66-8.25-4s-5.45-3.47-6-6.47c-.48-2.48.57-5,1.6-7.27.55-1.23,1.32-2.63,2.66-2.78a3.39,3.39,0,0,1,2.76,1.52,7.73,7.73,0,0,0,2.23,2.32,9.6,9.6,0,0,1,3-.22,3.34,3.34,0,0,1,2.49,1.47,8.05,8.05,0,0,1,.56,3.07,6.5,6.5,0,0,0,3.36,4.77C1217.68,547.72,1215.56,550.09,1214.45,552.7Z" transform="translate(-225 -97.35)"/>
            <path class="cls-8" d="M1291.7,809.75s-7.93-.55-10.42.57l.72,17.08-9.41.84c-9.32,1-10.56,7.42-10.56,7.42h28.32Z" transform="translate(-225 -97.35)"/>
            <path class="cls-8" d="M1346.7,809.69s-7.31-.49-9.8.62l2.34,16-9.19,1.9c-9.32,1-10.56,7.42-10.56,7.42h27.83Z" transform="translate(-225 -97.35)"/>
            <path class="cls-15" d="M1347.24,832.52l.08,3.14h-27.83s1.24-6.43,10.56-7.42l4-.84C1340.37,833.74,1347.24,832.52,1347.24,832.52Z" transform="translate(-225 -97.35)"/>
            <path class="cls-15" d="M1272.59,828.24l3.72-.33h0c6.2,5.27,14.06,4.15,14.27,3.41l-.23,4.34H1262S1263.27,829.23,1272.59,828.24Z" transform="translate(-225 -97.35)"/>
            <path class="cls-5" d="M1324,698.87s-17,32.74-21.74,42.93c-1.59,22.94-9.11,70.47-9.11,70.47h-14.76V738.69l16.94-90.79H1348l3,94.21-2.14,69.76-14.44.8Z" transform="translate(-225 -97.35)"/>
            <path class="cls-10" d="M1219.29,542.44l-9.2,10.39,35.36,35.32,46.73,10.69s.32,39.34-4,58.93-17.68,78.69-17.21,108.31c22,3.35,87,0,87,0s-6.69-96.84-10-118.82c0-17.68,6.79-55.16,5-62.94s-6-18.29-23.47-17-74.63,1.38-74.63,1.38Z" transform="translate(-225 -97.35)"/>
            <rect class="cls-8" x="1093.46" y="462.31" width="10.99" height="10.99"/>
            <path class="cls-8" d="M1333.36,559.87a17.41,17.41,0,1,1-18.81-29.24,15.08,15.08,0,0,1,10.48-1.75c4.87,1.09,8.77,5,10.94,9.46s2.85,9.55,3.16,14.53" transform="translate(-225 -97.35)"/>
            <path class="cls-9" d="M1321.31,549.49a18.47,18.47,0,0,0,1.11,5.8c1.41,4,7,5.5,11.15,5.29a10.21,10.21,0,0,0,7.65-4.86,25.14,25.14,0,0,0,3.18-8.79c.64-3.13,1.13-6.41.32-9.5s-3.17-6-6.34-6.47c1.66-2.44,1-5.94-.84-8.2a13.13,13.13,0,0,0-7.69-4c-4.6-.89-14.78-2.92-18.72-.4s-11,4.31-7.15,15.33C1306.48,540.79,1320.8,537.46,1321.31,549.49Z" transform="translate(-225 -97.35)"/>
          </g>
        </g>
      </g>
    </g>
  </g>
</svg>
